<svg width="201" height="193" viewBox="0 0 201 193" fill="none" xmlns="http://www.w3.org/2000/svg">
<path d="M47.7 173.8H72.3C89.1 173.8 97.5 165.1 97.5 147.7V45.4C97.5 28 89.1 19.3 72.3 19.3H47.7C31.1 19.3 22.8 28 22.8 45.4V147.7C22.8 165.1 31.1 173.8 47.7 173.8ZM75 193H45C31.4 193 20.6 189.1 12.6 181.3C4.8 173.5 0.9 162.6 0.9 148.6V44.5C0.9 30.7 4.8 19.9 12.6 12.1C20.6 4.09999 31.4 0.099998 45 0.099998H75C88.6 0.099998 99.3 4.09999 107.1 12.1C115.1 19.9 119.1 30.7 119.1 44.5V148.6C119.1 162.6 115.1 173.5 107.1 181.3C99.3 189.1 88.6 193 75 193ZM146.34 63.215V52.935C146.34 50.365 147.368 48.4803 149.424 47.281L179.236 30.062C181.978 28.52 184.205 27.749 185.918 27.749H196.712C199.111 27.749 200.31 28.9483 200.31 31.347V189.402C200.31 191.801 199.111 193 196.712 193H185.147C182.749 193 181.549 191.801 181.549 189.402V47.795L150.966 65.271C147.882 66.9843 146.34 66.299 146.34 63.215Z" fill="#161E29" fill-opacity="0.07"/>
</svg>
